<?xml version="1.0"?>
<svg xmlns="http://www.w3.org/2000/svg" xmlns:xlink="http://www.w3.org/1999/xlink" version="1.1" id="Capa_1" x="0px" y="0px" viewBox="0 0 496 496" style="enable-background:new 0 0 496 496;" xml:space="preserve" width="512px" height="512px" class=""><g><g>
	<path style="fill:#333333;" d="M363.664,65.544C329.12,43.6,289.128,32,248,32c-32.392,0-63.544,6.992-92.568,20.784l-6.872-14.448   C179.752,23.512,213.208,16,248,16c44.168,0,87.136,12.464,124.24,36.032L363.664,65.544z" data-original="#333333"/>
	<path style="fill:#333333;" d="M248,480c-11.096,0-22.24-0.792-33.136-2.352l2.264-15.832C227.28,463.264,237.664,464,248,464   c32.392,0,63.544-6.992,92.568-20.784l6.864,14.456C316.248,472.488,282.792,480,248,480z" data-original="#333333"/>
</g><g>
	<path style="fill:#34B7EC" d="M408,496c-48.52,0-88-39.48-88-88s39.48-88,88-88s88,39.48,88,88S456.52,496,408,496z" data-original="#FFA64D" class="active-path" data-old_color="#34b7ec"/>
	<path style="fill:#34B7EC" d="M88,176c-48.52,0-88-39.48-88-88S39.48,0,88,0s88,39.48,88,88S136.52,176,88,176z" data-original="#FFA64D" class="active-path" data-old_color="#34b7ec"/>
</g><g>
	<path style="fill:#333333;" d="M88,368c-22.056,0-40,17.944-40,40s17.944,40,40,40s40-17.944,40-40S110.056,368,88,368z M88,432   c-13.232,0-24-10.768-24-24s10.768-24,24-24s24,10.768,24,24S101.232,432,88,432z" data-original="#333333"/>
	<path style="fill:#333333;" d="M491.312,56L440,4.688L175.152,269.536C158.616,260.936,139.888,256,120,256   C53.832,256,0,309.832,0,376s53.832,120,120,120s120-53.832,120-120c0-19.888-4.936-38.616-13.536-55.152L356,191.312l36,36   L435.312,184l-36-36L412,135.312l36,36L491.312,128l-36-36L491.312,56z M120,480c-57.344,0-104-46.656-104-104s46.656-104,104-104   s104,46.656,104,104S177.344,480,120,480z M412.688,184L392,204.688L367.312,180L388,159.312L412.688,184z M217.872,306.816   c-7.88-11.112-17.576-20.808-28.688-28.688L440,27.312L468.688,56L217.872,306.816z M468.688,128L448,148.688L423.312,124   L444,103.312L468.688,128z" data-original="#333333"/>
	<path style="fill:#333333;" d="M440,400v-8c0-13.232-10.768-24-24-24v-16h-16v16c-13.232,0-24,10.768-24,24s10.768,24,24,24h16   c4.408,0,8,3.592,8,8s-3.592,8-8,8h-16c-4.408,0-8-3.592-8-8v-8h-16v8c0,13.232,10.768,24,24,24v16h16v-16   c13.232,0,24-10.768,24-24s-10.768-24-24-24h-16c-4.408,0-8-3.592-8-8s3.592-8,8-8h16c4.408,0,8,3.592,8,8v8H440z" data-original="#333333"/>
	<path style="fill:#333333;" d="M120,80v-8c0-13.232-10.768-24-24-24V32H80v16c-13.232,0-24,10.768-24,24s10.768,24,24,24h16   c4.408,0,8,3.592,8,8s-3.592,8-8,8H80c-4.408,0-8-3.592-8-8v-8H56v8c0,13.232,10.768,24,24,24v16h16v-16c13.232,0,24-10.768,24-24   s-10.768-24-24-24H80c-4.408,0-8-3.592-8-8s3.592-8,8-8h16c4.408,0,8,3.592,8,8v8H120z" data-original="#333333"/>
</g></g> </svg>
