<?xml version="1.0"?>
<svg xmlns="http://www.w3.org/2000/svg" xmlns:xlink="http://www.w3.org/1999/xlink" version="1.1" id="Capa_1" x="0px" y="0px" viewBox="0 0 496 496" style="enable-background:new 0 0 496 496;" xml:space="preserve" width="512px" height="512px" class=""><g><g>
	<circle style="fill:#EF6337" cx="408" cy="120" r="40" data-original="#FFA64D" class="active-path" data-old_color="#ef6337"/>
	<circle style="fill:#EF6337" cx="312" cy="432" r="40" data-original="#FFA64D" class="active-path" data-old_color="#ef6337"/>
	<circle style="fill:#EF6337" cx="80" cy="208" r="40" data-original="#FFA64D" class="active-path" data-old_color="#ef6337"/>
</g><g>
	<path style="fill:#333333" d="M264,208c57.344,0,104-46.656,104-104S321.344,0,264,0S160,46.656,160,104S206.656,208,264,208z    M208.36,112c0.936,15.664,4.48,29.344,9.368,41.088c-7.968,3.648-13.744,7.776-17.648,11.216   C186.912,150.36,178.232,132.176,176.4,112H208.36z M272,25.616c4.824,4.976,10.36,11.648,15.512,20.024   c-4.616,0.984-9.736,1.744-15.512,2.104V25.616z M288.144,19.448c10.096,2.888,19.424,7.544,27.688,13.6   c-2.872,2.336-6.992,5.056-12.568,7.552C298.432,32.176,293.152,25.152,288.144,19.448z M256,25.624v22.12   c-5.784-0.36-10.904-1.12-15.52-2.112C245.616,37.304,251.176,30.608,256,25.624z M224.76,40.616   c-5.584-2.504-9.72-5.232-12.592-7.568c8.272-6.056,17.6-10.712,27.696-13.6C234.88,25.144,229.584,32.192,224.76,40.616z    M272,63.744c8.736-0.488,16.384-1.752,23.064-3.488c4.376,10.216,7.616,22.12,8.568,35.744H272V63.744z M303.64,112   c-0.928,13.664-4.136,25.576-8.472,35.768c-6.712-1.752-14.392-3.024-23.168-3.52V112H303.64z M256,182.384   c-4.824-4.976-10.36-11.648-15.512-20.024c4.616-0.992,9.736-1.752,15.512-2.112V182.384z M239.856,188.552   c-10.096-2.888-19.424-7.544-27.688-13.6c2.872-2.336,6.992-5.056,12.568-7.552C229.568,175.824,234.848,182.848,239.856,188.552z    M272,182.528v-22.272c5.84,0.36,11,1.136,15.656,2.144C282.472,170.848,276.872,177.552,272,182.528z M303.264,167.4   c5.576,2.496,9.696,5.224,12.568,7.552c-8.264,6.056-17.592,10.712-27.688,13.6C293.152,182.848,298.432,175.824,303.264,167.4z    M256,144.256c-8.736,0.488-16.384,1.752-23.064,3.488c-4.376-10.216-7.616-22.12-8.568-35.744H256V144.256z M327.912,164.304   c-3.904-3.448-9.68-7.568-17.648-11.216c4.896-11.744,8.432-25.424,9.368-41.088h31.96   C349.768,132.176,341.08,150.36,327.912,164.304z M351.592,96h-31.96c-0.936-15.664-4.48-29.344-9.368-41.088   c7.968-3.648,13.744-7.776,17.648-11.216C341.08,57.64,349.768,75.824,351.592,96z M200.088,43.696   c3.904,3.448,9.68,7.568,17.648,11.216c-1.952,4.688-3.72,9.656-5.184,14.968l15.424,4.24c1.36-4.928,3.016-9.56,4.872-13.888   c6.696,1.752,14.376,3.024,23.152,3.512V96h-31.712c0.16-2.344,0.376-4.672,0.672-6.968l-15.856-2.072   c-0.392,2.976-0.664,6-0.848,9.04H176.4C178.232,75.824,186.92,57.64,200.088,43.696z" data-original="#333333" class="" data-old_color="#FFA64D"/>
	<path style="fill:#333333" d="M168,256H40c-13.232,0-24,10.768-24,24v192c0,13.232,10.768,24,24,24h128c13.232,0,24-10.768,24-24   V280C192,266.768,181.232,256,168,256z M40,272h128c4.416,0,8,3.592,8,8v8H32v-8C32,275.592,35.584,272,40,272z M176,304v112H32   V304H176z M168,480H40c-4.416,0-8-3.592-8-8v-40h144v40C176,476.408,172.416,480,168,480z" data-original="#333333" class="" data-old_color="#FFA64D"/>
	<rect x="80" y="448" style="fill:#333333" width="48" height="16" data-original="#333333" class="" data-old_color="#FFA64D"/>
	<path style="fill:#333333" d="M480,296h-36.32c7.632-8.504,12.32-19.696,12.32-32c0-26.472-21.528-48-48-48s-48,21.528-48,48   c0,12.304,4.688,23.496,12.32,32H336v104h32v96h80v-96h32V296z M376,264c0-17.648,14.352-32,32-32s32,14.352,32,32   s-14.352,32-32,32S376,281.648,376,264z M432,480h-16v-80h-16v80h-16v-80v-16h48v16V480z M464,384h-16v-16v-40h-16v40h-48v-40h-16   v40v16h-16v-72h112V384z" data-original="#333333" class="" data-old_color="#FFA64D"/>
	<path style="fill:#333333" d="M408,144c2.432,0,4.744-0.472,6.96-1.152c14.144,20.264,23.944,42.728,29.048,66.856l15.656-3.312   c-5.576-26.352-16.288-50.872-31.776-72.968C430.48,129.592,432,124.968,432,120c0-13.232-10.768-24-24-24s-24,10.768-24,24   S394.768,144,408,144z M408,112c4.416,0,8,3.592,8,8c0,4.408-3.584,8-8,8s-8-3.592-8-8S403.584,112,408,112z" data-original="#333333" class="" data-old_color="#FFA64D"/>
	<path style="fill:#333333" d="M312,408c-12.672,0-22.968,9.896-23.832,22.352c-25.664,3.36-52.216,1.352-76.928-6.024   l-4.576,15.328C225.184,445.192,244.48,448,264,448c9.536,0,19.064-0.816,28.464-2.16C296.816,451.968,303.928,456,312,456   c13.232,0,24-10.768,24-24S325.232,408,312,408z M312,440c-4.416,0-8-3.592-8-8s3.584-8,8-8s8,3.592,8,8S316.416,440,312,440z" data-original="#333333" class="" data-old_color="#FFA64D"/>
	<path style="fill:#333333" d="M80,232c13.232,0,24-10.768,24-24c0-9.4-5.48-17.472-13.376-21.408   c11.408-32.272,31.392-60.608,58.368-82.232l-10-12.488c-30.288,24.28-52.48,56.336-64.648,92.872C63.84,187.304,56,196.72,56,208   C56,221.232,66.768,232,80,232z M80,200c4.416,0,8,3.592,8,8s-3.584,8-8,8s-8-3.592-8-8S75.584,200,80,200z" data-original="#333333" class="" data-old_color="#FFA64D"/>
	<rect x="48" y="320" style="fill:#333333" width="16" height="48" data-original="#333333" class="" data-old_color="#FFA64D"/>
	<rect x="48" y="384" style="fill:#333333" width="16" height="16" data-original="#333333" class="" data-old_color="#FFA64D"/>
</g></g> </svg>
